<svg width="163" height="26" viewBox="0 0 163 26" fill="none" xmlns="http://www.w3.org/2000/svg">
<g clip-path="url(#clip0_1_666)">
<path d="M7.01394 9.19203C7.62278 8.34315 9.03527 6.25732 13.1266 6.25732C16.0734 6.25732 17.5589 7.39725 18.1678 7.97934C19.9212 9.70136 20.043 12.1752 20.043 13.5577V25.2723H12.6152V15.1342C12.6152 14.2125 12.5909 12.345 10.1068 12.345C7.47666 12.345 7.4036 14.3823 7.4036 15.3767V25.248H0.000183105V6.7424H7.01394V9.19203Z" fill="#00A4B8"/>
<path d="M23.9884 0H31.3918V4.89925H23.9884V0ZM23.9884 6.74254H31.3918V25.2966H23.9884V6.74254Z" fill="#00A4B8"/>
<path d="M35.312 0H42.7641V12.0299L47.8053 6.74254H56.8647L49.7779 13.4366L57.1813 25.2966H48.7064L44.6393 18.2388L42.6911 20.1063V25.2966H35.312V0Z" fill="#00A4B8"/>
<path d="M59.4225 0H66.8746V12.0299L71.9158 6.74254H80.9752L73.8884 13.4366L81.2918 25.2966H72.8412L68.7742 18.2388L66.8259 20.1063V25.2966H59.4225V0Z" fill="#00A4B8"/>
<path d="M99.8495 8.63416C101.603 10.3077 102.772 13.1211 102.772 16.0558C102.772 21.901 98.7049 25.9998 91.6668 25.9998C84.1416 25.9998 81.0488 21.1248 81.0488 16.1528C81.0488 10.0651 85.1888 5.91775 92.0565 5.942C95.8069 5.99051 98.4127 7.27595 99.8495 8.63416ZM88.4035 15.9345C88.4035 17.7293 88.8418 20.8338 91.8616 20.8338C94.4431 20.8338 95.2711 18.651 95.2711 15.8618C95.2711 14.7461 95.1981 11.0353 91.8129 11.1323C89.0123 11.2051 88.4035 13.8487 88.4035 15.9345Z" fill="#00A4B8"/>
<path d="M106.63 12.709C106.922 11.1325 107.311 9.16791 109.966 7.76119C112.06 6.69403 114.715 6.5 116.663 6.5C125.503 6.5 125.503 11.0597 125.503 13.2668V23.3563C125.503 24.569 125.601 24.9086 126.161 25.6362H118.855V24.2052C117.93 24.8601 116.2 26.0728 112.718 26.0728C108.042 26.0728 105.996 23.2351 105.996 20.0821C105.996 18.9664 106.24 17.4384 107.579 16.1045C109.26 14.3825 111.281 14.0914 114.544 13.6791C116.59 13.3881 117.394 13.2183 118.49 12.903C118.465 11.6418 118.1 10.7929 115.981 10.7929C114.301 10.7929 113.814 11.2295 113.57 12.5149L106.63 12.709ZM116.249 17.7537C115.64 17.8993 114.983 18.0448 114.35 18.2631C112.913 18.8451 112.84 19.694 112.84 19.9123C112.84 20.4216 113.278 21.3433 114.666 21.3433C115.713 21.3433 117.442 20.6642 118.076 19.2332C118.441 18.4571 118.441 17.7052 118.441 17.0504C117.735 17.2929 117.004 17.5354 116.249 17.7537Z" fill="#FFD74A"/>
<path d="M136.487 9.79881C137.072 8.87717 138.338 6.69434 142.405 6.69434C143.063 6.69434 144.086 6.7671 145.255 7.1309C147.666 7.88277 148.372 9.21672 148.883 10.1869C149.419 8.97419 151.099 6.71859 155.361 6.71859C157.383 6.71859 159.306 7.37344 160.548 8.58613C162.229 10.2354 162.278 12.2484 162.302 13.9947V25.7093H154.899V16.0078C154.899 14.8193 154.874 12.8305 152.317 12.8305C149.614 12.8305 149.589 15.0134 149.589 15.838V25.7578H142.186V15.6682C142.186 15.3044 142.162 14.9406 142.089 14.6011C141.772 13.1701 140.506 12.782 139.605 12.782C138.85 12.782 138.095 13.0246 137.583 13.5339C136.901 14.213 136.901 14.9649 136.853 15.6197V25.7093H129.449V7.15516H136.536V9.79881H136.487Z" fill="#FFD74A"/>
</g>
<defs>
<clipPath id="clip0_1_666">
<rect width="163" height="26" fill="white"/>
</clipPath>
</defs>
</svg>
