<svg width="268" height="705" viewBox="0 0 268 705" fill="none" xmlns="http://www.w3.org/2000/svg">
<path d="M36.4885 -18L216.472 623.014" stroke="#00A4B8" stroke-miterlimit="10"/>
<path d="M205.1 628.62C207.85 626.042 154.023 416.335 158.091 416.335C162.159 416.335 21.2817 -11.6095 21.2817 -15.428" stroke="#00A4B8" stroke-miterlimit="10"/>
<path d="M193.721 634.233C199.222 629.076 151.636 423.589 159.771 423.589C167.913 423.589 6.08136 -5.22503 6.08136 -12.8499" stroke="#00A4B8" stroke-miterlimit="10"/>
<path d="M182.341 639.839C190.594 632.104 149.242 430.843 161.451 430.843C173.661 430.843 -9.12549 1.16548 -9.12549 -10.2778" stroke="#00A4B8" stroke-miterlimit="10"/>
<path d="M170.962 645.445C181.965 635.132 146.854 438.097 163.138 438.097C179.415 438.097 -24.3258 7.55578 -24.3258 -7.69995" stroke="#00A4B8" stroke-miterlimit="10"/>
<path d="M159.583 651.051C173.33 638.167 144.467 445.351 164.818 445.351C185.17 445.351 -39.5392 13.9464 -39.5392 -5.1217" stroke="#00A4B8" stroke-miterlimit="10"/>
<path d="M148.204 656.663C164.702 641.201 142.08 452.611 166.499 452.611C190.918 452.611 -54.746 20.3368 -54.746 -2.5498" stroke="#00A4B8" stroke-miterlimit="10"/>
<path d="M136.825 662.269C156.073 644.229 139.692 459.859 168.179 459.859C196.666 459.859 -69.9529 26.7275 -69.9529 0.0284424" stroke="#00A4B8" stroke-miterlimit="10"/>
<path d="M125.446 667.876C147.445 647.257 137.298 467.113 169.859 467.113C202.42 467.113 -85.1529 33.118 -85.1529 2.60046" stroke="#00A4B8" stroke-miterlimit="10"/>
<path d="M114.066 673.482C138.816 650.285 134.911 474.367 171.539 474.367C208.168 474.367 -100.367 39.5084 -100.367 5.17847" stroke="#00A4B8" stroke-miterlimit="10"/>
<path d="M102.687 679.094C130.188 653.319 132.524 481.627 173.22 481.627C213.916 481.627 -115.567 45.899 -115.567 7.75659" stroke="#00A4B8" stroke-miterlimit="10"/>
<path d="M91.3146 684.7C121.566 656.347 130.143 488.881 174.907 488.881C219.671 488.881 -130.773 52.2894 -130.773 10.3285" stroke="#00A4B8" stroke-miterlimit="10"/>
<path d="M79.9355 690.306C112.938 659.375 127.755 496.129 176.593 496.129C225.432 496.129 -145.974 58.6739 -145.974 12.9006" stroke="#00A4B8" stroke-miterlimit="10"/>
<path d="M68.5562 695.912C104.309 662.403 125.361 503.382 178.274 503.382C231.186 503.382 -161.187 65.0705 -161.187 15.4788" stroke="#00A4B8" stroke-miterlimit="10"/>
<path d="M57.177 701.518C95.6806 665.431 122.974 510.636 179.954 510.636C236.934 510.636 -176.387 71.4609 -176.387 18.0568" stroke="#00A4B8" stroke-miterlimit="10"/>
<path d="M45.7981 707.13C87.0459 668.471 120.587 517.896 181.634 517.896C242.682 517.896 -191.594 77.8514 -191.594 20.6348" stroke="#00A4B8" stroke-miterlimit="10"/>
<path d="M34.4187 712.737C78.4173 671.499 118.199 525.15 183.314 525.15C248.43 525.15 -206.801 84.242 -206.801 23.213" stroke="#00A4B8" stroke-miterlimit="10"/>
<path d="M23.0398 718.343C69.789 674.527 115.812 532.398 184.995 532.398C254.178 532.398 -222.008 90.6264 -222.008 25.7789" stroke="#00A4B8" stroke-miterlimit="10"/>
<path d="M11.6606 723.949C61.1606 677.555 113.418 539.652 186.675 539.652C259.932 539.652 -237.215 97.0168 -237.215 28.3569" stroke="#00A4B8" stroke-miterlimit="10"/>
<path d="M0.281388 729.561C52.5321 680.59 111.03 546.912 188.355 546.912C265.68 546.912 -252.421 103.407 -252.421 30.9351" stroke="#00A4B8" stroke-miterlimit="10"/>
<path d="M-11.0913 735.167C43.9101 683.618 108.649 554.166 190.048 554.166C271.448 554.166 -267.622 109.798 -267.622 33.5071" stroke="#00A4B8" stroke-miterlimit="10"/>
<path d="M-22.4705 740.774C35.2816 686.646 106.262 561.42 191.729 561.42C277.196 561.42 -282.829 116.188 -282.829 36.0852" stroke="#00A4B8" stroke-miterlimit="10"/>
<path d="M-33.8496 746.38C26.6532 689.674 103.874 568.668 193.409 568.668C282.944 568.668 -298.035 122.579 -298.035 38.6633" stroke="#00A4B8" stroke-miterlimit="10"/>
<path d="M-45.2286 751.992C18.025 692.708 101.481 575.928 195.089 575.928C288.698 575.928 -313.242 128.969 -313.242 41.2352" stroke="#00A4B8" stroke-miterlimit="10"/>
<path d="M-56.6078 757.598C9.39649 695.736 99.0932 583.182 196.77 583.182C294.446 583.182 -328.449 135.36 -328.449 43.8135" stroke="#00A4B8" stroke-miterlimit="10"/>
<path d="M-67.987 763.204C0.768007 698.77 96.7058 590.435 198.45 590.435C300.194 590.435 -343.656 141.75 -343.656 46.3854" stroke="#00A4B8" stroke-miterlimit="10"/>
<path d="M-79.366 768.81C-7.86034 701.798 94.3184 597.689 200.13 597.689C305.942 597.689 -358.856 148.141 -358.856 48.9635" stroke="#00A4B8" stroke-miterlimit="10"/>
<path d="M-90.7453 774.416C-16.4889 704.826 91.931 604.943 201.817 604.943C311.703 604.943 -374.063 154.532 -374.063 51.5416" stroke="#00A4B8" stroke-miterlimit="10"/>
<path d="M-102.124 780.029C-25.1173 707.86 89.5435 612.197 203.497 612.197C317.451 612.197 -389.27 160.916 -389.27 54.1135" stroke="#00A4B8" stroke-miterlimit="10"/>
<path d="M-113.497 785.635C-33.7455 710.888 87.1563 619.451 205.184 619.451C323.212 619.451 -404.476 167.306 -404.476 56.6917" stroke="#00A4B8" stroke-miterlimit="10"/>
<path d="M-124.876 791.241C-42.3743 713.916 84.7686 626.705 206.864 626.705C328.96 626.705 -419.683 173.697 -419.683 59.2637" stroke="#00A4B8" stroke-miterlimit="10"/>
<path d="M-136.255 796.847C-51.0025 716.95 82.3749 633.959 208.545 633.959C334.714 633.959 -434.89 180.087 -434.89 61.8418" stroke="#00A4B8" stroke-miterlimit="10"/>
<path d="M-147.634 802.459C-59.6309 719.978 79.9876 641.213 210.225 641.213C340.462 641.213 -450.09 186.478 -450.09 64.4198" stroke="#00A4B8" stroke-miterlimit="10"/>
<path d="M-159.014 808.065C-68.2594 723.007 77.6 648.467 211.905 648.467C346.21 648.467 -465.297 192.868 -465.297 66.9919" stroke="#00A4B8" stroke-miterlimit="10"/>
<path d="M-170.393 813.671C-76.8879 726.035 75.2126 655.721 213.585 655.721C351.958 655.721 -480.504 199.259 -480.504 69.5699" stroke="#00A4B8" stroke-miterlimit="10"/>
<path d="M-181.772 819.278C-85.5228 729.069 72.8251 662.975 215.266 662.975C357.706 662.975 -495.711 205.649 -495.711 72.142" stroke="#00A4B8" stroke-miterlimit="10"/>
<path d="M-193.151 824.89C-94.1513 732.103 70.4376 670.235 216.952 670.235C363.467 670.235 -510.918 212.04 -510.918 74.7201" stroke="#00A4B8" stroke-miterlimit="10"/>
<path d="M-204.53 830.496C-102.78 735.131 68.0437 677.482 218.633 677.482C369.221 677.482 -526.124 218.43 -526.124 77.2981" stroke="#00A4B8" stroke-miterlimit="10"/>
<path d="M-215.903 836.102C-111.402 738.159 65.6628 684.737 220.319 684.737C374.976 684.737 -541.325 224.821 -541.325 79.8702" stroke="#00A4B8" stroke-miterlimit="10"/>
<path d="M-227.282 841.708C-120.03 741.187 63.2754 691.99 222 691.99C380.724 691.99 -556.532 231.211 -556.532 82.4482" stroke="#00A4B8" stroke-miterlimit="10"/>
<path d="M-238.661 847.32C-128.658 744.221 60.8882 699.25 223.68 699.25C386.472 699.25 -571.738 237.596 -571.738 85.0203" stroke="#00A4B8" stroke-miterlimit="10"/>
<path d="M-250.041 852.926C-137.287 747.249 58.5004 706.504 225.36 706.504C392.22 706.504 -586.945 243.986 -586.945 87.5984" stroke="#00A4B8" stroke-miterlimit="10"/>
<path d="M-261.42 858.533C-145.915 750.277 56.1068 713.752 227.041 713.752C397.974 713.752 -602.152 250.377 -602.152 90.1765" stroke="#00A4B8" stroke-miterlimit="10"/>
<path d="M-272.799 864.139C-154.544 753.305 53.7192 721.006 228.721 721.006C403.722 721.006 -617.359 256.767 -617.359 92.7484" stroke="#00A4B8" stroke-miterlimit="10"/>
<path d="M-284.178 869.745C-163.172 756.333 51.3318 728.26 230.407 728.26C409.483 728.26 -632.565 263.158 -632.565 95.3265" stroke="#00A4B8" stroke-miterlimit="10"/>
<path d="M-295.557 875.357C-171.807 759.373 48.9444 735.52 232.088 735.52C415.231 735.52 -647.766 269.548 -647.766 97.8986" stroke="#00A4B8" stroke-miterlimit="10"/>
<path d="M-306.936 880.963C-180.436 762.401 46.5569 742.774 233.768 742.774C420.979 742.774 -662.973 275.939 -662.973 100.477" stroke="#00A4B8" stroke-miterlimit="10"/>
<path d="M-318.315 886.569C-189.064 765.429 44.163 750.022 235.448 750.022C426.733 750.022 -678.179 282.329 -678.179 103.055" stroke="#00A4B8" stroke-miterlimit="10"/>
<path d="M-329.688 892.175C-197.686 768.457 41.7823 757.276 237.135 757.276C432.488 757.276 -693.386 288.72 -693.386 105.627" stroke="#00A4B8" stroke-miterlimit="10"/>
<path d="M-341.067 897.788C-206.314 771.491 39.3948 764.535 238.815 764.535C438.236 764.535 -708.593 295.11 -708.593 108.205" stroke="#00A4B8" stroke-miterlimit="10"/>
<path d="M-352.446 903.394C-214.943 774.52 37.0075 771.79 240.496 771.79C443.984 771.79 -723.8 301.501 -723.8 110.777" stroke="#00A4B8" stroke-miterlimit="10"/>
<path d="M-363.825 909C-223.571 777.548 34.6201 779.044 242.176 779.044C449.732 779.044 -739 307.891 -739 113.355" stroke="#00A4B8" stroke-miterlimit="10"/>
</svg>
